<svg width="519" height="346" viewBox="0 0 519 346" fill="none" xmlns="http://www.w3.org/2000/svg">
<path d="M519 0L465.769 106.462H226.231L249.994 58.9355C268.054 22.8159 304.971 0 345.353 0H519ZM119.769 106.462L66.5385 212.923H110.273C147.3 212.923 181.15 192.873 197.709 161.132L226.231 106.462H119.769ZM173.647 346C214.029 346 250.946 323.184 269.006 287.064L292.769 239.538H53.2308L0 346H173.647ZM399.231 239.538L452.462 133.077H408.727C371.7 133.077 337.85 153.127 321.291 184.868L292.769 239.538H399.231Z" fill="url(#paint0_linear_2031_537)"/>
<defs>
<linearGradient id="paint0_linear_2031_537" x1="43.25" y1="389.25" x2="475.75" y2="-43.25" gradientUnits="userSpaceOnUse">
<stop stop-color="#030051"/>
<stop offset="0.587915" stop-color="#6400EC"/>
<stop offset="0.988696" stop-color="#EF1CD2"/>
</linearGradient>
</defs>
</svg>
